<mxfile host="65bd71144e">
    <diagram id="wsslvUVb8ydzT1h5_sqj" name="Page-1">
        <mxGraphModel dx="799" dy="464" grid="1" gridSize="10" guides="1" tooltips="1" connect="1" arrows="1" fold="1" page="1" pageScale="1" pageWidth="1100" pageHeight="850" math="0" shadow="0">
            <root>
                <mxCell id="0"/>
                <mxCell id="1" parent="0"/>
                <mxCell id="23" style="edgeStyle=none;html=1;exitX=0.5;exitY=1;exitDx=0;exitDy=0;entryX=1;entryY=0.5;entryDx=0;entryDy=0;" edge="1" parent="1" source="12" target="21">
                    <mxGeometry relative="1" as="geometry">
                        <Array as="points">
                            <mxPoint x="535" y="465"/>
                        </Array>
                    </mxGeometry>
                </mxCell>
                <mxCell id="12" value="«interface»&lt;br&gt;&lt;b&gt;Repository&lt;/b&gt;" style="html=1;" vertex="1" parent="1">
                    <mxGeometry x="480" y="350" width="110" height="50" as="geometry"/>
                </mxCell>
                <mxCell id="19" style="edgeStyle=none;html=1;exitX=1;exitY=0.5;exitDx=0;exitDy=0;entryX=0.5;entryY=0;entryDx=0;entryDy=0;" edge="1" parent="1" source="13" target="12">
                    <mxGeometry relative="1" as="geometry">
                        <Array as="points">
                            <mxPoint x="535" y="255"/>
                        </Array>
                    </mxGeometry>
                </mxCell>
                <mxCell id="20" style="edgeStyle=none;html=1;exitX=0;exitY=0.5;exitDx=0;exitDy=0;entryX=0.5;entryY=0;entryDx=0;entryDy=0;" edge="1" parent="1" source="13" target="14">
                    <mxGeometry relative="1" as="geometry">
                        <Array as="points">
                            <mxPoint x="175" y="255"/>
                        </Array>
                    </mxGeometry>
                </mxCell>
                <mxCell id="13" value="Application" style="html=1;" vertex="1" parent="1">
                    <mxGeometry x="290" y="230" width="110" height="50" as="geometry"/>
                </mxCell>
                <mxCell id="14" value="View 1" style="html=1;" vertex="1" parent="1">
                    <mxGeometry x="120" y="320" width="110" height="50" as="geometry"/>
                </mxCell>
                <mxCell id="15" value="View 1" style="html=1;" vertex="1" parent="1">
                    <mxGeometry x="130" y="330" width="110" height="50" as="geometry"/>
                </mxCell>
                <mxCell id="16" value="View 1" style="html=1;" vertex="1" parent="1">
                    <mxGeometry x="140" y="340" width="110" height="50" as="geometry"/>
                </mxCell>
                <mxCell id="22" style="edgeStyle=none;html=1;exitX=0.5;exitY=1;exitDx=0;exitDy=0;entryX=0;entryY=0.5;entryDx=0;entryDy=0;" edge="1" parent="1" source="17" target="21">
                    <mxGeometry relative="1" as="geometry">
                        <Array as="points">
                            <mxPoint x="205" y="465"/>
                        </Array>
                    </mxGeometry>
                </mxCell>
                <mxCell id="17" value="Controller" style="html=1;" vertex="1" parent="1">
                    <mxGeometry x="150" y="350" width="110" height="50" as="geometry"/>
                </mxCell>
                <mxCell id="21" value="Train" style="html=1;" vertex="1" parent="1">
                    <mxGeometry x="290" y="440" width="110" height="50" as="geometry"/>
                </mxCell>
            </root>
        </mxGraphModel>
    </diagram>
</mxfile>